<svg width="375" height="467" viewBox="0 0 375 467" fill="none" xmlns="http://www.w3.org/2000/svg">
<path d="M-71.0701 52.9333C93.2574 91.7777 166.219 172.758 275.99 68.7344C385.76 -35.2896 518.537 -8.29603 548.116 12.7721" stroke="#629D0A" stroke-opacity="0.05" stroke-width="3.89425"/>
<path d="M-71.0701 -30.7931C93.2574 8.05126 166.219 89.032 275.99 -14.992C385.76 -119.016 518.537 -92.0225 548.116 -70.9543" stroke="#629D0A" stroke-opacity="0.05" stroke-width="3.89425"/>
<path d="M-71 129.315C93.2781 169.828 166.218 254.287 275.955 145.794C385.693 37.3019 518.43 65.455 548 87.4282" stroke="#629D0A" stroke-opacity="0.05" stroke-width="3.89425"/>
<path d="M-71.0701 262.249C93.2574 301.094 166.219 382.074 275.99 278.05C385.76 174.026 518.537 201.02 548.116 222.088" stroke="#629D0A" stroke-opacity="0.05" stroke-width="3.89425"/>
<path d="M-71.0701 397.575C93.2574 436.419 166.219 517.4 275.99 413.376C385.76 309.352 518.537 336.345 548.116 357.413" stroke="#629D0A" stroke-opacity="0.05" stroke-width="3.89425"/>
</svg>
