<svg width="278" height="209" viewBox="0 0 278 209" fill="none" xmlns="http://www.w3.org/2000/svg">
<path d="M79.0318 48.7732C80.2976 48.7732 81.3273 48.6126 82.1209 48.2914C82.9333 47.9703 83.5662 47.5546 84.0197 47.0445C84.4731 46.5343 84.7848 45.9581 84.9549 45.3157C85.1249 44.6733 85.21 44.0215 85.21 43.3602C85.21 42.6045 85.106 41.9243 84.8982 41.3197C84.7093 40.7151 84.3692 40.205 83.878 39.7894C83.4056 39.3737 82.7727 39.0525 81.9792 38.8258C81.1856 38.5991 80.1843 38.4857 78.9751 38.4857H72.2868V48.7732H79.0318ZM72.2868 21.8783V32.0808H77.2747C78.3327 32.0808 79.2868 32.0052 80.137 31.8541C80.9873 31.7029 81.7052 31.4384 82.2909 31.0606C82.8955 30.6827 83.3489 30.1631 83.6512 29.5018C83.9724 28.8406 84.133 28.0093 84.133 27.0079C84.133 26.0254 84.0102 25.213 83.7646 24.5706C83.519 23.9094 83.1411 23.3803 82.631 22.9836C82.1209 22.5868 81.469 22.3034 80.6755 22.1334C79.9009 21.9633 78.9751 21.8783 77.8982 21.8783H72.2868ZM77.8982 14.7082C80.7511 14.7082 83.1789 14.9727 85.1816 15.5018C87.1843 16.0308 88.8186 16.7771 90.0845 17.7406C91.3503 18.7042 92.2667 19.8756 92.8335 21.2548C93.4192 22.6341 93.712 24.1739 93.712 25.8743C93.712 26.8001 93.5798 27.6975 93.3153 28.5666C93.0508 29.4168 92.6351 30.2198 92.0683 30.9755C91.5015 31.7124 90.7741 32.3926 89.8861 33.016C88.9981 33.6395 87.9306 34.178 86.6836 34.6314C89.4043 35.2927 91.4165 36.3602 92.7201 37.8339C94.0238 39.3076 94.6756 41.2158 94.6756 43.5586C94.6756 45.3157 94.3355 46.95 93.6554 48.4615C92.9752 49.973 91.9738 51.2955 90.6513 52.4291C89.3476 53.5438 87.7322 54.4224 85.8051 55.0648C83.878 55.6883 81.6769 56 79.2018 56H62.7078V14.7082H77.8982ZM117.551 37.7772C117.551 37.0781 117.457 36.398 117.268 35.7367C117.098 35.0754 116.805 34.4897 116.389 33.9796C115.992 33.4506 115.463 33.0255 114.802 32.7043C114.141 32.3831 113.338 32.2225 112.393 32.2225C110.731 32.2225 109.427 32.7043 108.482 33.6679C107.538 34.6125 106.914 35.9823 106.612 37.7772H117.551ZM106.498 42.8785C106.782 45.3346 107.528 47.12 108.737 48.2348C109.946 49.3306 111.505 49.8785 113.413 49.8785C114.434 49.8785 115.312 49.7557 116.049 49.5101C116.786 49.2645 117.438 48.9905 118.005 48.6882C118.59 48.3859 119.119 48.112 119.592 47.8663C120.083 47.6207 120.593 47.4979 121.122 47.4979C121.821 47.4979 122.35 47.753 122.709 48.2631L125.26 51.4089C124.353 52.448 123.37 53.2982 122.312 53.9595C121.273 54.6019 120.196 55.112 119.081 55.4899C117.986 55.8489 116.88 56.0945 115.766 56.2267C114.67 56.3779 113.621 56.4534 112.62 56.4534C110.56 56.4534 108.624 56.1228 106.81 55.4615C105.015 54.7814 103.438 53.78 102.077 52.4575C100.736 51.1349 99.6684 49.4912 98.8748 47.5263C98.1002 45.5613 97.7129 43.2752 97.7129 40.6679C97.7129 38.703 98.0435 36.842 98.7048 35.0849C99.385 33.3278 100.349 31.788 101.595 30.4654C102.861 29.1429 104.382 28.0943 106.158 27.3196C107.953 26.545 109.975 26.1577 112.223 26.1577C114.169 26.1577 115.945 26.46 117.551 27.0646C119.176 27.6692 120.565 28.5477 121.717 29.7002C122.888 30.8527 123.795 32.2697 124.438 33.9513C125.099 35.6139 125.43 37.5032 125.43 39.6193C125.43 40.2806 125.401 40.8191 125.345 41.2347C125.288 41.6504 125.184 41.981 125.033 42.2266C124.882 42.4722 124.674 42.6423 124.409 42.7368C124.164 42.8312 123.843 42.8785 123.446 42.8785H106.498ZM139.953 56.4534C138.555 56.4534 137.317 56.2551 136.24 55.8583C135.182 55.4426 134.285 54.8664 133.548 54.1295C132.83 53.3738 132.282 52.4669 131.904 51.4089C131.526 50.3508 131.337 49.17 131.337 47.8663V32.676H128.843C128.39 32.676 128.003 32.5343 127.681 32.2509C127.36 31.9486 127.2 31.514 127.2 30.9472V27.518L131.876 26.6111L133.605 19.4411C133.831 18.5342 134.474 18.0807 135.532 18.0807H140.123V26.6678H150.977L152.734 19.4411C152.961 18.5342 153.603 18.0807 154.661 18.0807H159.252V26.6678H166.536V32.676H159.252V47.2712C159.252 47.9514 159.413 48.5182 159.734 48.9716C160.074 49.4062 160.556 49.6234 161.18 49.6234C161.501 49.6234 161.765 49.5951 161.973 49.5384C162.2 49.4628 162.389 49.3873 162.54 49.3117C162.71 49.2172 162.861 49.1417 162.993 49.085C163.145 49.0094 163.315 48.9716 163.503 48.9716C163.768 48.9716 163.976 49.0377 164.127 49.17C164.297 49.2834 164.467 49.4723 164.637 49.7368L167.301 53.9028C166.167 54.753 164.892 55.3954 163.475 55.83C162.058 56.2456 160.594 56.4534 159.082 56.4534C157.684 56.4534 156.447 56.2551 155.37 55.8583C154.312 55.4426 153.414 54.8664 152.678 54.1295C151.96 53.3738 151.412 52.4669 151.034 51.4089C150.656 50.3508 150.467 49.17 150.467 47.8663V32.676H140.123V47.2712C140.123 47.9514 140.283 48.5182 140.605 48.9716C140.945 49.4062 141.426 49.6234 142.05 49.6234C142.371 49.6234 142.636 49.5951 142.843 49.5384C143.07 49.4628 143.259 49.3873 143.41 49.3117C143.58 49.2172 143.731 49.1417 143.864 49.085C144.015 49.0094 144.185 48.9716 144.374 48.9716C144.638 48.9716 144.846 49.0377 144.997 49.17C145.167 49.2834 145.337 49.4723 145.507 49.7368L148.171 53.9028C147.038 54.753 145.762 55.3954 144.345 55.83C142.928 56.2456 141.464 56.4534 139.953 56.4534ZM188.346 37.7772C188.346 37.0781 188.252 36.398 188.063 35.7367C187.893 35.0754 187.6 34.4897 187.184 33.9796C186.788 33.4506 186.259 33.0255 185.597 32.7043C184.936 32.3831 184.133 32.2225 183.188 32.2225C181.526 32.2225 180.222 32.7043 179.278 33.6679C178.333 34.6125 177.709 35.9823 177.407 37.7772H188.346ZM177.294 42.8785C177.577 45.3346 178.323 47.12 179.533 48.2348C180.742 49.3306 182.3 49.8785 184.209 49.8785C185.229 49.8785 186.108 49.7557 186.844 49.5101C187.581 49.2645 188.233 48.9905 188.8 48.6882C189.386 48.3859 189.915 48.112 190.387 47.8663C190.878 47.6207 191.388 47.4979 191.917 47.4979C192.616 47.4979 193.145 47.753 193.504 48.2631L196.055 51.4089C195.148 52.448 194.166 53.2982 193.108 53.9595C192.068 54.6019 190.991 55.112 189.877 55.4899C188.781 55.8489 187.676 56.0945 186.561 56.2267C185.465 56.3779 184.417 56.4534 183.415 56.4534C181.356 56.4534 179.419 56.1228 177.605 55.4615C175.811 54.7814 174.233 53.78 172.873 52.4575C171.531 51.1349 170.464 49.4912 169.67 47.5263C168.896 45.5613 168.508 43.2752 168.508 40.6679C168.508 38.703 168.839 36.842 169.5 35.0849C170.18 33.3278 171.144 31.788 172.391 30.4654C173.657 29.1429 175.178 28.0943 176.954 27.3196C178.748 26.545 180.77 26.1577 183.018 26.1577C184.964 26.1577 186.74 26.46 188.346 27.0646C189.971 27.6692 191.36 28.5477 192.512 29.7002C193.684 30.8527 194.591 32.2697 195.233 33.9513C195.894 35.6139 196.225 37.5032 196.225 39.6193C196.225 40.2806 196.197 40.8191 196.14 41.2347C196.083 41.6504 195.979 41.981 195.828 42.2266C195.677 42.4722 195.469 42.6423 195.205 42.7368C194.959 42.8312 194.638 42.8785 194.241 42.8785H177.294ZM208.84 31.1456C209.747 29.5585 210.786 28.3116 211.957 27.4047C213.148 26.4978 214.508 26.0443 216.038 26.0443C217.361 26.0443 218.438 26.3561 219.269 26.9796L218.702 33.4411C218.608 33.8568 218.447 34.1402 218.221 34.2914C218.013 34.4425 217.72 34.5181 217.342 34.5181C217.191 34.5181 216.992 34.5086 216.747 34.4897C216.501 34.4708 216.246 34.4519 215.982 34.4331C215.717 34.3953 215.443 34.3669 215.16 34.348C214.895 34.3102 214.65 34.2914 214.423 34.2914C213.138 34.2914 212.109 34.6314 211.334 35.3116C210.578 35.9918 209.936 36.9364 209.407 38.1456V56H200.621V26.6111H205.836C206.27 26.6111 206.629 26.6489 206.913 26.7245C207.215 26.8001 207.461 26.9229 207.65 27.0929C207.857 27.2441 208.009 27.4519 208.103 27.7164C208.216 27.9809 208.311 28.3021 208.387 28.68L208.84 31.1456ZM19.8697 90.0767V100.534H33.9831V107.931H19.8697V124H10.234V82.7082H36.8172V90.0767H19.8697ZM65.7924 94.6111V124H60.3511C59.2553 124 58.5373 123.509 58.1972 122.526L57.6871 120.826C57.1203 121.374 56.5346 121.874 55.93 122.328C55.3254 122.762 54.6736 123.14 53.9745 123.462C53.2944 123.764 52.5481 124 51.7357 124.17C50.9421 124.359 50.073 124.453 49.1284 124.453C47.5224 124.453 46.096 124.179 44.849 123.632C43.6209 123.065 42.5818 122.281 41.7316 121.279C40.8813 120.278 40.239 119.097 39.8044 117.737C39.3699 116.376 39.1526 114.884 39.1526 113.259V94.6111H47.9381V113.259C47.9381 114.714 48.2687 115.838 48.93 116.632C49.5913 117.425 50.5643 117.822 51.849 117.822C52.8126 117.822 53.71 117.623 54.5414 117.227C55.3916 116.811 56.2134 116.254 57.007 115.555V94.6111H65.7924ZM82.2758 124.453C80.8777 124.453 79.6402 124.255 78.5633 123.858C77.5052 123.443 76.6078 122.866 75.8709 122.13C75.153 121.374 74.6051 120.467 74.2272 119.409C73.8493 118.351 73.6604 117.17 73.6604 115.866V100.676H71.1665C70.713 100.676 70.3257 100.534 70.0045 100.251C69.6833 99.9486 69.5227 99.514 69.5227 98.9472V95.518L74.1989 94.6111L75.9276 87.4411C76.1544 86.5342 76.7967 86.0807 77.8548 86.0807H82.4459V94.6678H89.7293V100.676H82.4459V115.271C82.4459 115.951 82.6065 116.518 82.9277 116.972C83.2678 117.406 83.7495 117.623 84.373 117.623C84.6942 117.623 84.9587 117.595 85.1666 117.538C85.3933 117.463 85.5822 117.387 85.7334 117.312C85.9034 117.217 86.0546 117.142 86.1868 117.085C86.338 117.009 86.508 116.972 86.6969 116.972C86.9614 116.972 87.1693 117.038 87.3204 117.17C87.4905 117.283 87.6605 117.472 87.8305 117.737L90.4945 121.903C89.3609 122.753 88.0856 123.395 86.6686 123.83C85.2516 124.246 83.7873 124.453 82.2758 124.453ZM119.871 94.6111V124H114.43C113.334 124 112.616 123.509 112.276 122.526L111.766 120.826C111.199 121.374 110.614 121.874 110.009 122.328C109.404 122.762 108.753 123.14 108.054 123.462C107.373 123.764 106.627 124 105.815 124.17C105.021 124.359 104.152 124.453 103.207 124.453C101.601 124.453 100.175 124.179 98.928 123.632C97.6999 123.065 96.6608 122.281 95.8105 121.279C94.9603 120.278 94.318 119.097 93.8834 117.737C93.4489 116.376 93.2316 114.884 93.2316 113.259V94.6111H102.017V113.259C102.017 114.714 102.348 115.838 103.009 116.632C103.67 117.425 104.643 117.822 105.928 117.822C106.892 117.822 107.789 117.623 108.62 117.227C109.471 116.811 110.292 116.254 111.086 115.555V94.6111H119.871ZM134.059 99.1456C134.966 97.5585 136.005 96.3116 137.177 95.4047C138.367 94.4978 139.727 94.0443 141.258 94.0443C142.58 94.0443 143.657 94.3561 144.488 94.9796L143.922 101.441C143.827 101.857 143.667 102.14 143.44 102.291C143.232 102.443 142.939 102.518 142.561 102.518C142.41 102.518 142.212 102.509 141.966 102.49C141.721 102.471 141.466 102.452 141.201 102.433C140.937 102.395 140.663 102.367 140.379 102.348C140.115 102.31 139.869 102.291 139.642 102.291C138.358 102.291 137.328 102.631 136.553 103.312C135.797 103.992 135.155 104.936 134.626 106.146V124H125.841V94.6111H131.055C131.49 94.6111 131.849 94.6489 132.132 94.7245C132.434 94.8001 132.68 94.9229 132.869 95.0929C133.077 95.2441 133.228 95.4519 133.322 95.7164C133.436 95.9809 133.53 96.3021 133.606 96.68L134.059 99.1456ZM165.265 105.777C165.265 105.078 165.17 104.398 164.981 103.737C164.811 103.075 164.518 102.49 164.103 101.98C163.706 101.451 163.177 101.025 162.516 100.704C161.854 100.383 161.051 100.223 160.107 100.223C158.444 100.223 157.14 100.704 156.196 101.668C155.251 102.613 154.628 103.982 154.325 105.777H165.265ZM154.212 110.878C154.495 113.335 155.242 115.12 156.451 116.235C157.66 117.331 159.219 117.879 161.127 117.879C162.147 117.879 163.026 117.756 163.763 117.51C164.499 117.264 165.151 116.991 165.718 116.688C166.304 116.386 166.833 116.112 167.305 115.866C167.796 115.621 168.306 115.498 168.835 115.498C169.535 115.498 170.064 115.753 170.423 116.263L172.973 119.409C172.066 120.448 171.084 121.298 170.026 121.96C168.987 122.602 167.91 123.112 166.795 123.49C165.699 123.849 164.594 124.094 163.479 124.227C162.383 124.378 161.335 124.453 160.333 124.453C158.274 124.453 156.337 124.123 154.524 123.462C152.729 122.781 151.151 121.78 149.791 120.457C148.449 119.135 147.382 117.491 146.588 115.526C145.814 113.561 145.426 111.275 145.426 108.668C145.426 106.703 145.757 104.842 146.418 103.085C147.098 101.328 148.062 99.788 149.309 98.4654C150.575 97.1429 152.096 96.0943 153.872 95.3196C155.667 94.545 157.688 94.1577 159.937 94.1577C161.883 94.1577 163.659 94.46 165.265 95.0646C166.889 95.6692 168.278 96.5477 169.431 97.7002C170.602 98.8527 171.509 100.27 172.151 101.951C172.813 103.614 173.143 105.503 173.143 107.619C173.143 108.281 173.115 108.819 173.058 109.235C173.001 109.65 172.898 109.981 172.746 110.227C172.595 110.472 172.387 110.642 172.123 110.737C171.877 110.831 171.556 110.878 171.159 110.878H154.212ZM201.314 90.0767V100.534H215.427V107.931H201.314V124H191.678V82.7082H218.261V90.0767H201.314ZM233.707 94.1577C235.937 94.1577 237.968 94.5072 239.8 95.2063C241.633 95.9053 243.201 96.9067 244.505 98.2104C245.827 99.514 246.848 101.101 247.566 102.972C248.302 104.823 248.671 106.911 248.671 109.235C248.671 111.578 248.302 113.694 247.566 115.583C246.848 117.453 245.827 119.05 244.505 120.372C243.201 121.676 241.633 122.687 239.8 123.405C237.968 124.104 235.937 124.453 233.707 124.453C231.459 124.453 229.409 124.104 227.557 123.405C225.725 122.687 224.138 121.676 222.796 120.372C221.474 119.05 220.444 117.453 219.707 115.583C218.989 113.694 218.63 111.578 218.63 109.235C218.63 106.911 218.989 104.823 219.707 102.972C220.444 101.101 221.474 99.514 222.796 98.2104C224.138 96.9067 225.725 95.9053 227.557 95.2063C229.409 94.5072 231.459 94.1577 233.707 94.1577ZM233.707 117.935C235.729 117.935 237.212 117.227 238.157 115.81C239.12 114.374 239.602 112.201 239.602 109.291C239.602 106.382 239.12 104.218 238.157 102.801C237.212 101.384 235.729 100.676 233.707 100.676C231.629 100.676 230.108 101.384 229.144 102.801C228.181 104.218 227.699 106.382 227.699 109.291C227.699 112.201 228.181 114.374 229.144 115.81C230.108 117.227 231.629 117.935 233.707 117.935ZM261.314 99.1456C262.221 97.5585 263.26 96.3116 264.431 95.4047C265.621 94.4978 266.982 94.0443 268.512 94.0443C269.835 94.0443 270.912 94.3561 271.743 94.9796L271.176 101.441C271.082 101.857 270.921 102.14 270.694 102.291C270.487 102.443 270.194 102.518 269.816 102.518C269.665 102.518 269.466 102.509 269.221 102.49C268.975 102.471 268.72 102.452 268.455 102.433C268.191 102.395 267.917 102.367 267.634 102.348C267.369 102.31 267.123 102.291 266.897 102.291C265.612 102.291 264.582 102.631 263.808 103.312C263.052 103.992 262.41 104.936 261.881 106.146V124H253.095V94.6111H258.31C258.744 94.6111 259.103 94.6489 259.387 94.7245C259.689 94.8001 259.935 94.9229 260.123 95.0929C260.331 95.2441 260.482 95.4519 260.577 95.7164C260.69 95.9809 260.785 96.3021 260.86 96.68L261.314 99.1456ZM41.1966 176.299V192H31.6176V176.299L16.6539 150.708H25.0993C25.9307 150.708 26.5825 150.907 27.0548 151.303C27.5461 151.681 27.9523 152.172 28.2735 152.777L34.1116 164.793C34.6028 165.738 35.0468 166.626 35.4435 167.457C35.8403 168.27 36.1898 169.073 36.4921 169.866C36.7755 169.054 37.0967 168.241 37.4557 167.429C37.8336 166.598 38.2681 165.719 38.7594 164.793L44.5408 152.777C44.673 152.531 44.8336 152.286 45.0226 152.04C45.2115 151.795 45.4288 151.577 45.6744 151.388C45.9389 151.181 46.2317 151.02 46.5529 150.907C46.893 150.774 47.2614 150.708 47.6582 150.708H56.1603L41.1966 176.299ZM65.3261 162.158C67.5556 162.158 69.5866 162.507 71.4193 163.206C73.252 163.905 74.8201 164.907 76.1238 166.21C77.4463 167.514 78.4666 169.101 79.1845 170.972C79.9214 172.823 80.2898 174.911 80.2898 177.235C80.2898 179.578 79.9214 181.694 79.1845 183.583C78.4666 185.453 77.4463 187.05 76.1238 188.372C74.8201 189.676 73.252 190.687 71.4193 191.405C69.5866 192.104 67.5556 192.453 65.3261 192.453C63.0778 192.453 61.0279 192.104 59.1763 191.405C57.3436 190.687 55.7566 189.676 54.4151 188.372C53.0926 187.05 52.0629 185.453 51.3261 183.583C50.6081 181.694 50.2491 179.578 50.2491 177.235C50.2491 174.911 50.6081 172.823 51.3261 170.972C52.0629 169.101 53.0926 167.514 54.4151 166.21C55.7566 164.907 57.3436 163.905 59.1763 163.206C61.0279 162.507 63.0778 162.158 65.3261 162.158ZM65.3261 185.935C67.3478 185.935 68.8309 185.227 69.7756 183.81C70.7391 182.374 71.2209 180.201 71.2209 177.291C71.2209 174.382 70.7391 172.218 69.7756 170.801C68.8309 169.384 67.3478 168.676 65.3261 168.676C63.2479 168.676 61.7269 169.384 60.7634 170.801C59.7998 172.218 59.318 174.382 59.318 177.291C59.318 180.201 59.7998 182.374 60.7634 183.81C61.7269 185.227 63.2479 185.935 65.3261 185.935ZM111.07 162.611V192H105.629C104.533 192 103.815 191.509 103.475 190.526L102.965 188.826C102.398 189.374 101.813 189.874 101.208 190.328C100.603 190.762 99.9516 191.14 99.2526 191.462C98.5724 191.764 97.8261 192 97.0137 192.17C96.2201 192.359 95.351 192.453 94.4064 192.453C92.8004 192.453 91.374 192.179 90.127 191.632C88.8989 191.065 87.8598 190.281 87.0096 189.279C86.1593 188.278 85.517 187.097 85.0824 185.737C84.6479 184.376 84.4306 182.884 84.4306 181.259V162.611H93.2161V181.259C93.2161 182.714 93.5467 183.838 94.208 184.632C94.8693 185.425 95.8423 185.822 97.127 185.822C98.0906 185.822 98.988 185.623 99.8194 185.227C100.67 184.811 101.491 184.254 102.285 183.555V162.611H111.07ZM125.258 167.146C126.165 165.559 127.204 164.312 128.376 163.405C129.566 162.498 130.926 162.044 132.457 162.044C133.779 162.044 134.856 162.356 135.688 162.98L135.121 169.441C135.026 169.857 134.866 170.14 134.639 170.291C134.431 170.443 134.138 170.518 133.76 170.518C133.609 170.518 133.411 170.509 133.165 170.49C132.92 170.471 132.665 170.452 132.4 170.433C132.136 170.395 131.862 170.367 131.578 170.348C131.314 170.31 131.068 170.291 130.841 170.291C129.557 170.291 128.527 170.631 127.752 171.312C126.996 171.992 126.354 172.936 125.825 174.146V192H117.04V162.611H122.254C122.689 162.611 123.048 162.649 123.331 162.725C123.633 162.8 123.879 162.923 124.068 163.093C124.276 163.244 124.427 163.452 124.521 163.716C124.635 163.981 124.729 164.302 124.805 164.68L125.258 167.146ZM161.238 167.429H162.768C164.185 167.429 165.205 166.985 165.829 166.097L175.124 152.607C175.672 151.889 176.258 151.398 176.881 151.133C177.524 150.85 178.317 150.708 179.262 150.708H187.594L175.351 167.401C174.482 168.553 173.547 169.384 172.545 169.895C173.263 170.159 173.915 170.528 174.501 171C175.087 171.472 175.634 172.086 176.145 172.842L188.614 192H180.056C179.508 192 179.035 191.962 178.639 191.887C178.261 191.811 177.93 191.698 177.647 191.547C177.363 191.395 177.118 191.216 176.91 191.008C176.702 190.781 176.504 190.526 176.315 190.243L166.962 175.874C166.622 175.345 166.188 174.977 165.659 174.769C165.149 174.542 164.449 174.429 163.561 174.429H161.238V192H151.659V150.708H161.238V167.429ZM199.642 162.611V192H190.856V162.611H199.642ZM200.549 154.563C200.549 155.262 200.407 155.923 200.124 156.546C199.84 157.151 199.453 157.689 198.962 158.162C198.47 158.615 197.894 158.984 197.233 159.267C196.59 159.531 195.901 159.664 195.164 159.664C194.446 159.664 193.775 159.531 193.152 159.267C192.528 158.984 191.971 158.615 191.48 158.162C191.007 157.689 190.63 157.151 190.346 156.546C190.082 155.923 189.949 155.262 189.949 154.563C189.949 153.845 190.082 153.174 190.346 152.55C190.63 151.927 191.007 151.379 191.48 150.907C191.971 150.434 192.528 150.066 193.152 149.801C193.775 149.537 194.446 149.405 195.164 149.405C195.901 149.405 196.59 149.537 197.233 149.801C197.894 150.066 198.47 150.434 198.962 150.907C199.453 151.379 199.84 151.927 200.124 152.55C200.407 153.174 200.549 153.845 200.549 154.563ZM223.595 170.49C222.934 169.753 222.216 169.243 221.441 168.959C220.667 168.657 219.854 168.506 219.004 168.506C218.191 168.506 217.445 168.667 216.765 168.988C216.085 169.309 215.49 169.828 214.98 170.546C214.488 171.245 214.101 172.162 213.818 173.295C213.534 174.429 213.393 175.799 213.393 177.405C213.393 178.954 213.506 180.258 213.733 181.316C213.959 182.374 214.271 183.233 214.668 183.895C215.084 184.537 215.575 185 216.142 185.283C216.708 185.567 217.341 185.708 218.04 185.708C218.683 185.708 219.259 185.652 219.769 185.538C220.298 185.406 220.78 185.227 221.214 185C221.649 184.773 222.055 184.49 222.433 184.15C222.83 183.791 223.217 183.385 223.595 182.931V170.49ZM232.381 149.575V192H226.939C225.843 192 225.125 191.509 224.785 190.526L224.105 188.287C223.519 188.911 222.905 189.478 222.263 189.988C221.621 190.498 220.922 190.942 220.166 191.32C219.429 191.679 218.626 191.953 217.757 192.142C216.907 192.35 215.981 192.453 214.98 192.453C213.449 192.453 212.032 192.113 210.729 191.433C209.425 190.753 208.301 189.771 207.356 188.486C206.411 187.201 205.665 185.633 205.117 183.781C204.588 181.911 204.324 179.785 204.324 177.405C204.324 175.213 204.626 173.182 205.231 171.312C205.835 169.422 206.685 167.797 207.781 166.437C208.896 165.058 210.228 163.981 211.777 163.206C213.326 162.432 215.036 162.044 216.907 162.044C218.437 162.044 219.722 162.262 220.761 162.696C221.8 163.131 222.745 163.716 223.595 164.453V149.575H232.381ZM256.992 169.044C256.766 169.403 256.52 169.658 256.255 169.81C256.01 169.961 255.689 170.036 255.292 170.036C254.876 170.036 254.461 169.951 254.045 169.781C253.629 169.592 253.176 169.394 252.685 169.186C252.212 168.978 251.674 168.789 251.069 168.619C250.465 168.43 249.775 168.336 249 168.336C247.886 168.336 247.026 168.553 246.421 168.988C245.836 169.403 245.543 169.989 245.543 170.745C245.543 171.293 245.732 171.746 246.11 172.105C246.506 172.464 247.026 172.785 247.668 173.069C248.311 173.333 249.038 173.588 249.851 173.834C250.663 174.08 251.494 174.353 252.344 174.656C253.195 174.958 254.026 175.317 254.838 175.733C255.651 176.129 256.378 176.63 257.021 177.235C257.663 177.82 258.173 178.538 258.551 179.389C258.948 180.239 259.146 181.259 259.146 182.449C259.146 183.904 258.882 185.246 258.353 186.474C257.824 187.702 257.03 188.76 255.972 189.648C254.933 190.536 253.639 191.225 252.089 191.717C250.559 192.208 248.792 192.453 246.79 192.453C245.788 192.453 244.787 192.359 243.786 192.17C242.784 191.981 241.811 191.726 240.867 191.405C239.941 191.084 239.081 190.706 238.288 190.271C237.494 189.818 236.814 189.336 236.247 188.826L238.288 185.595C238.514 185.217 238.798 184.924 239.138 184.717C239.497 184.49 239.95 184.376 240.498 184.376C241.008 184.376 241.462 184.49 241.859 184.717C242.274 184.943 242.718 185.189 243.191 185.453C243.663 185.718 244.211 185.964 244.834 186.19C245.477 186.417 246.28 186.53 247.243 186.53C247.923 186.53 248.5 186.464 248.972 186.332C249.444 186.181 249.822 185.982 250.106 185.737C250.389 185.491 250.597 185.217 250.729 184.915C250.861 184.613 250.927 184.301 250.927 183.98C250.927 183.394 250.729 182.912 250.332 182.534C249.936 182.156 249.416 181.835 248.774 181.571C248.131 181.287 247.394 181.032 246.563 180.806C245.751 180.56 244.919 180.286 244.069 179.984C243.219 179.681 242.378 179.322 241.547 178.907C240.734 178.472 240.007 177.934 239.365 177.291C238.722 176.63 238.203 175.827 237.806 174.882C237.409 173.938 237.211 172.795 237.211 171.453C237.211 170.206 237.447 169.025 237.919 167.911C238.41 166.777 239.138 165.785 240.101 164.935C241.065 164.085 242.274 163.414 243.729 162.923C245.184 162.413 246.884 162.158 248.83 162.158C249.888 162.158 250.909 162.252 251.891 162.441C252.892 162.63 253.828 162.895 254.697 163.235C255.566 163.575 256.359 163.981 257.077 164.453C257.795 164.907 258.428 165.407 258.976 165.955L256.992 169.044Z" fill="#172600"/>
<rect x="114.078" y="204.337" width="31.542" height="4.66308" rx="2.33154" fill="#F7704A"/>
</svg>
