<svg width="34" height="33" viewBox="0 0 34 33" fill="none" xmlns="http://www.w3.org/2000/svg">
<path d="M22.7709 13.019C22.7709 11.5214 22.1759 10.0851 21.117 9.0261C20.058 7.96712 18.6217 7.37219 17.1241 7.37219C15.6265 7.37219 14.1902 7.96712 13.1312 9.0261C12.0722 10.0851 11.4773 11.5214 11.4773 13.019C11.4773 19.6069 8.65389 21.4892 8.65389 21.4892H25.5943C25.5943 21.4892 22.7709 19.6069 22.7709 13.019Z" stroke="#5F5B5B" stroke-width="1.88226" stroke-linecap="round" stroke-linejoin="round"/>
<path d="M18.7523 25.2537C18.5868 25.5389 18.3493 25.7757 18.0636 25.9402C17.7778 26.1048 17.4539 26.1915 17.1241 26.1915C16.7943 26.1915 16.4704 26.1048 16.1846 25.9402C15.8989 25.7757 15.6614 25.5389 15.4959 25.2537" stroke="#5F5B5B" stroke-width="1.88226" stroke-linecap="round" stroke-linejoin="round"/>
<circle cx="21.2036" cy="8.78391" r="4.39195" fill="#FF5E5E"/>
</svg>
