<svg width="96" height="96" viewBox="0 0 96 96" fill="none" xmlns="http://www.w3.org/2000/svg">
<path d="M15.7717 54.7372C16.4811 53.7186 16.8947 53.0292 17.411 52.4236C17.8699 51.8878 18.4676 51.4469 18.9748 50.939C20.282 49.6133 20.2186 48.7398 18.6578 47.6375C17.7914 47.0319 16.786 46.577 15.9226 45.9854C15.3133 45.6007 14.787 45.1142 14.3709 44.5509C13.6795 43.5155 14.069 42.5974 15.3068 42.1285C15.8976 41.9234 16.5027 41.7556 17.1181 41.6262C17.8336 41.4448 18.5854 41.3415 19.2797 41.0959C20.9855 40.4903 21.2934 39.8261 20.596 38.2717C20.2781 37.5895 19.9004 36.9324 19.4669 36.307C18.8782 35.4167 18.3227 34.4846 18.9778 33.4939C19.6812 32.4195 20.91 32.4892 22.0753 32.6455C23.0414 32.7739 24.0014 32.9916 24.9675 33.0362C26.5253 33.1032 27.431 32.2269 27.3525 30.7757C27.3162 30.0892 27.126 29.411 27.0566 28.7273C26.9429 28.0461 26.9085 27.3556 26.954 26.6677C27.114 25.37 28.2189 24.8063 29.4265 25.4481C30.3092 25.9421 31.1259 26.5303 31.8598 27.2007C34.0908 29.1626 34.9331 29.0817 36.6781 26.6928C37.1996 25.9941 37.7822 25.336 38.4201 24.7253C39.6005 23.5839 40.956 23.7207 41.8375 25.0546C42.1537 25.6192 42.4124 26.2096 42.6104 26.8184C42.7915 27.2649 42.9214 27.731 43.0934 28.1803C43.6187 29.5478 44.2074 29.7348 45.5026 28.8612C46.2422 28.3617 46.8913 27.7505 47.5947 27.2007C47.9385 26.9197 48.3049 26.6632 48.6906 26.4333C49.865 25.783 51.0303 26.0565 51.4681 27.2482C51.724 28.0519 51.7878 28.8975 51.6553 29.7264C51.3202 32.4027 51.6824 32.7878 54.6652 32.6762C55.6977 32.6371 56.7332 32.679 57.7536 32.612C58.6865 32.5646 59.5227 32.7348 59.9907 33.5134C60.2257 33.9136 60.3342 34.3669 60.3038 34.8214C60.2733 35.2759 60.1052 35.7134 59.8186 36.0837C59.4201 36.6642 58.8736 37.1526 58.4329 37.7107C58.0464 38.2019 57.7174 38.7238 57.2464 39.4047C58.7589 40.0438 60.0873 40.5294 61.3341 41.1518C62.1881 41.5654 62.9681 42.0982 63.6466 42.7313C63.8593 42.9144 64.0274 43.1373 64.1396 43.3852C64.2517 43.633 64.3055 43.9002 64.2972 44.1687C64.2889 44.4373 64.2188 44.7012 64.0915 44.9427C63.9643 45.1843 63.7827 45.3979 63.5591 45.5695C62.7528 46.2455 61.8874 46.8588 60.9718 47.4031C59.6435 48.2347 59.4533 48.991 60.4496 50.1687C60.9477 50.752 61.5666 51.2404 62.1039 51.7929C63.5048 53.2274 63.1002 54.9465 61.1258 55.5381C59.9846 55.873 58.765 55.9791 57.5936 56.2247C55.5075 56.6628 55.2448 57.0675 55.7128 59.0126C55.9633 60.048 56.2471 61.0415 55.7943 62.1299C55.6617 62.5688 55.3688 62.9518 54.9654 63.2138C54.5621 63.4758 54.073 63.6007 53.5814 63.5672C52.5512 63.5151 51.5251 63.4089 50.508 63.249C48.7057 63.0285 48.4038 63.2016 47.9449 64.7867C47.646 65.8221 47.323 66.8295 46.3721 67.5579C45.3456 68.3449 44.4912 68.4873 43.3923 67.8287C42.5389 67.2956 41.7314 66.7021 40.9771 66.0537C39.2503 64.6137 38.3446 64.6416 36.814 66.2575C36.3941 66.7595 35.9328 67.2307 35.4343 67.6668C34.3142 68.5124 33.321 68.3868 32.5512 67.2342C32.1559 66.5927 31.8755 65.8962 31.7209 65.1719C31.1866 63.1262 30.5586 62.7076 28.3246 63.1151C27.7661 63.2183 27.2317 63.4276 26.6793 63.5588C25.9674 63.7634 25.2383 63.9127 24.4995 64.0053C23.2497 64.1002 22.6972 63.5281 22.8451 62.3532C22.9399 61.7761 23.0719 61.2049 23.2406 60.6424C23.3734 60.1234 23.5455 59.6182 23.6874 59.1131C24.2459 56.8386 23.5938 55.9791 21.0669 55.6414C20.3424 55.5298 19.5726 55.5437 18.842 55.4153C17.9393 55.2953 17.0819 55.0497 15.7717 54.7372ZM50.6832 27.4212C49.5027 27.1226 48.8023 27.5803 48.1351 28.1021C47.4785 28.6968 46.786 29.2568 46.0611 29.7794C44.2286 30.9152 42.8127 30.3878 42.1877 28.4315C41.9459 27.5047 41.6124 26.6004 41.1915 25.73C40.5122 24.5104 39.522 24.4825 38.6736 25.5793C38.094 26.3049 37.5385 27.0472 36.9709 27.7784C35.4222 29.7682 33.7648 29.9161 31.7723 28.2473C31.3052 27.7779 30.8039 27.3387 30.2718 26.9328C29.6831 26.5728 28.8408 26.023 28.3397 26.1849C27.4159 26.4807 27.7782 27.4463 27.8385 28.1552C27.92 29.1068 28.1978 30.0557 28.2038 30.9934C28.234 32.8967 26.8392 34.0409 24.7712 33.8762C23.9712 33.8121 23.1833 33.6418 22.3863 33.5469C21.8249 33.4517 21.2534 33.418 20.6835 33.4465C19.7567 33.5386 19.4095 34.1051 19.7356 34.9256C19.947 35.3614 20.1859 35.7854 20.4511 36.1954C20.9065 36.9306 21.3079 37.6932 21.6526 38.4782C22.1689 39.8485 21.7432 40.8727 20.3213 41.5229C19.3702 41.8882 18.3915 42.1886 17.3929 42.4216C16.5989 42.6588 15.8049 42.9071 15.0954 43.122C14.9905 43.5464 15.0448 43.9911 15.2494 44.3831C15.4541 44.7751 15.7969 45.0912 16.2215 45.2793C17.1574 45.7928 18.1355 46.2505 19.0322 46.8114C21.076 48.0924 21.3266 49.6301 19.7839 51.3799C19.2012 52.0357 18.4948 52.5995 17.888 53.2386C17.6313 53.5712 17.407 53.9242 17.2178 54.2935C17.891 54.4302 18.374 54.5642 18.8661 54.6283C19.8352 54.7539 20.8315 54.7707 21.7734 54.966C24.0859 55.4293 24.9645 56.6154 24.6203 58.7643C24.5026 59.4982 24.2158 60.2043 24.0769 60.9411C23.938 61.6778 23.8837 62.3308 23.7478 63.3551C24.5599 62.9895 25.0037 62.7802 25.4475 62.5876C26.5045 62.0648 27.6001 61.6116 28.7261 61.2313C30.5798 60.7122 31.8628 61.5132 32.3217 63.2546C32.4545 63.7681 32.4998 64.3067 32.6568 64.8146C32.9889 65.8863 33.6531 66.1765 34.7399 65.6798C35.3479 65.3841 35.9215 65.0316 36.4517 64.6277C38.4895 63.1625 39.7394 63.2016 41.596 64.8174C41.759 64.9681 41.9221 65.1188 42.0851 65.2695C44.1078 67.0389 44.6603 66.9635 46.0339 64.7281C47.3441 62.5904 48.5276 62.0713 51.133 62.4704C51.8622 62.6132 52.6018 62.7056 53.3459 62.7467C54.4055 62.7606 54.952 62.2611 54.9761 61.2843C54.982 60.7 54.9007 60.1178 54.7346 59.554C53.8863 56.6433 55.6343 55.2172 58.3966 55.1251C59.086 55.11 59.7705 55.0153 60.4344 54.8432C61.5273 54.5474 61.7598 53.9028 61.1137 53.0432C60.6548 52.4348 60.1326 51.8627 59.6133 51.2934C58.1672 49.711 58.134 48.7538 59.6133 47.2579C60.4284 46.4374 61.3673 45.7202 62.2066 44.9221C63.4383 43.7834 63.2753 43.2476 61.6239 42.6699C61.2496 42.5416 60.8541 42.4774 60.4677 42.3769C59.7522 42.1899 59.0397 41.9834 58.3182 41.8132C56.1807 41.3053 55.3203 37.7861 57.3793 36.6475C57.6196 36.503 57.8354 36.3261 58.0193 36.1228C58.5385 35.5926 59.4593 35.1544 58.9642 34.2781C58.4691 33.4018 57.5453 33.5246 56.6668 33.639C55.592 33.7618 54.4901 33.9767 53.4214 34.0493C51.8334 34.1386 50.7979 33.2985 50.6016 31.8446C50.5747 31.2105 50.5959 30.5754 50.665 29.944C50.6801 29.0538 50.6801 28.2277 50.6832 27.4212ZM35.235 66.623L33.0493 66.7793C33.9429 67.5273 34.4199 67.41 35.235 66.623Z" fill="#1985AC"/>
<path d="M84.791 36.2735C81.7298 38.467 78.9282 40.8615 76.5975 44.0151C78.9734 46.63 82.1101 48.5863 84.791 51.232C83.6981 51.338 82.6807 51.5697 81.6815 51.5278C77.2076 51.3882 72.7286 51.5374 68.2772 51.9743C67.0266 52.0227 65.7759 51.8793 64.5759 51.5501C63.2536 51.2431 62.9275 50.4896 63.64 49.3901C64.1972 48.5945 64.8629 47.8686 65.6205 47.23C66.2635 46.6356 67.0817 46.2086 67.7911 45.6756C69.2312 44.6011 69.4033 43.4597 68.0115 42.335C66.6198 41.2103 64.9472 40.295 63.4076 39.2791C62.9231 38.9783 62.4983 38.6025 62.1517 38.1684C65.8982 37.4568 69.6539 37.3451 73.3732 36.9656C77.0926 36.5861 80.8633 36.2372 84.6099 35.8772C84.6491 36.0028 84.7125 36.1339 84.791 36.2735ZM75.4292 44.1741C77.1741 41.4783 79.5652 39.5024 82.092 37.1275C80.8845 37.1275 80.1176 37.0437 79.3538 37.1135C74.4369 37.5656 69.522 38.0456 64.6091 38.5535C64.4944 38.5647 64.3887 38.7014 64.1925 38.8382C64.5638 39.0531 64.8627 39.2177 65.1374 39.3935C66.3055 40.0632 67.4286 40.7976 68.5006 41.5927C70.3029 43.069 70.2607 44.7546 68.4734 46.2281C67.7458 46.8282 66.9126 47.3137 66.1488 47.8803C65.222 48.5696 64.2861 49.2673 64.2589 50.7436C65.2763 50.8413 66.2303 51.0645 67.1662 51.0087C70.8886 50.7827 74.605 50.4729 78.3364 50.1715C79.4474 50.0822 80.5433 49.9789 81.9864 49.845C80.6127 48.7259 79.5169 47.8803 78.4813 46.9788C77.4458 46.0774 76.4405 45.109 75.4171 44.163L75.4292 44.1741Z" fill="#1985AC"/>
<path d="M45.2368 81.2828C43.9205 82.4996 42.7219 83.5628 41.5747 84.668C40.4275 85.7731 39.0358 86.5406 38.3625 88.1955C37.5836 87.1797 37.641 86.1666 37.6138 85.2094C37.5836 84.1545 37.7859 83.0856 37.7346 82.0335C37.6108 79.4409 37.3693 76.851 37.2334 74.2584C37.1429 72.5672 37.0795 70.8676 37.158 69.1653C37.2093 67.8397 37.6833 67.3345 38.912 66.8796C39.9233 68.6127 41.466 69.9104 43.1778 71.0686C45.0737 72.3579 46.1394 72.2379 47.4648 70.4546C48.2014 69.4611 48.8716 68.4062 49.578 67.3848C49.8467 67.0024 50.1637 66.648 50.4385 66.3047C51.3441 66.5838 51.3683 67.2201 51.4317 67.7811C51.7578 70.1979 52.0929 72.6175 52.3344 75.0399C52.6695 78.3636 52.908 81.7098 53.2129 85.0224C53.3206 85.7748 53.3337 86.5361 53.2521 87.2913C49.9343 85.9768 47.8542 83.4847 45.2368 81.2828ZM52.117 85.7843C52.5336 83.5852 51.0543 69.436 50.2784 68.1606C49.4724 69.2071 48.7448 70.2816 47.8844 71.2556C46.1787 73.184 44.6782 73.2872 42.571 71.6686C41.5566 70.8928 40.6056 70.0416 39.6124 69.2406C39.3181 69.0314 39.0106 68.8385 38.6916 68.6629C38.595 68.8974 38.5195 68.995 38.5225 69.0927C38.6936 73.8649 38.8737 78.6381 39.0629 83.4121C39.1691 84.1199 39.3357 84.8189 39.5611 85.5024L45.3243 80.1748C47.7576 82.0279 49.4482 84.3945 52.117 85.7843Z" fill="#1985AC"/>
<path d="M29.2083 39.2623C29.6672 38.7097 30.0476 38.185 30.5065 37.7274C30.9843 37.2997 31.4851 36.8946 32.0069 36.5134C34.4342 37.9423 36.5112 40.013 38.851 41.7795C41.1091 43.4949 43.3784 45.1964 45.6587 46.8838C45.9342 47.0425 46.2318 47.1655 46.5433 47.2494C47.3645 46.5908 48.083 45.9155 48.8981 45.3685C49.2182 45.1733 49.5775 45.0396 49.9547 44.9752C50.3318 44.9108 50.719 44.917 51.0935 44.9935C51.4679 45.07 51.822 45.2153 52.1346 45.4206C52.4472 45.626 52.712 45.8872 52.9133 46.1889C53.0193 46.475 53.0118 46.7866 52.8922 47.068C52.779 47.3169 52.6055 47.5384 52.385 47.7155L42.7877 56.5873C41.8428 56.1269 40.8706 55.6524 39.8291 55.1473C40.1732 53.0598 42.3197 52.2868 43.5273 50.5844C40.0102 47.0485 35.5421 44.3805 31.8378 40.8502C31.9163 41.3358 32.0099 41.8409 32.1035 42.3349C32.3688 43.8184 32.0172 45.3398 31.1193 46.5936C30.9805 46.8057 30.6212 46.8866 29.9993 47.2327C30.585 45.575 31.4122 44.3638 31.2552 42.8791C31.0982 41.3944 30.3193 40.3004 29.2083 39.2623ZM32.013 38.3441C32.1518 38.5004 32.2696 38.6651 32.4356 38.8185C34.2017 40.4902 35.9557 42.1786 37.752 43.828C39.6631 45.5945 41.6224 47.322 43.5726 49.0523C43.9892 49.4374 44.4451 49.8588 45.4504 49.549C40.8193 45.7815 36.955 41.573 32.0009 38.3329L32.013 38.3441ZM42.4254 55.5548C44.6232 54.137 47.6694 51.1593 47.923 50.2216C45.855 51.1007 45.8097 51.1537 44.1372 53.6766C44.0074 53.8747 43.6722 53.9556 43.4337 54.0924C43.3492 54.0143 43.2466 53.9529 43.15 53.8859L44.1523 51.7705L43.956 51.656L41.082 54.3129L42.4254 55.5548ZM51.2046 46.9257L48.6204 48.1648C49.1034 48.2262 49.5351 47.9388 49.8823 48.0085C51.1563 48.2653 51.5095 47.3973 52.068 46.7359C50.9208 45.5638 50.8695 45.5554 49.6196 46.1471C50.1087 46.3815 50.5223 46.5741 51.2076 46.9229L51.2046 46.9257ZM44.2308 47.1378C44.6836 47.7015 45.0338 48.4383 46.1327 48.7285C45.8338 47.6318 44.9523 47.4811 44.2338 47.135L44.2308 47.1378Z" fill="#1985AC"/>
</svg>
