<svg width="52" height="63" viewBox="0 0 52 63" fill="none" xmlns="http://www.w3.org/2000/svg">
<path d="M5.39032 35.993C1.28992 35.8793 -2.53711 35.5718 -6.21835 37.1427C-6.76051 36.2415 -6.3596 35.5803 -6.00879 34.9485C-3.72999 31.0426 -0.497849 27.6813 3.43122 25.1313C5.31172 23.9369 7.48886 23.2023 9.7595 22.996C10.6069 22.9076 11.4544 22.7897 12.3063 22.6844C16.0377 15.9079 21.6689 10.8919 28.8173 7.35418C33.4823 4.96265 38.5752 3.36765 43.8521 2.64562C45.8977 2.39293 48.0208 2.1992 49.5652 0.624065C50.0208 0.165001 50.7544 0.00916101 51.2054 0.480859C51.5471 0.838844 51.8296 1.64327 51.6246 1.98862C49.8842 4.93673 50.3854 8.17544 50.0072 11.3004C49.4936 15.0156 48.3125 18.6254 46.5127 21.981C43.8561 27.1106 40.0969 31.6862 35.4645 35.4286C34.4986 36.2162 33.5373 37.008 32.544 37.7661C32.2431 37.9542 32.0165 38.2276 31.8982 38.5451C31.7799 38.8626 31.7763 39.207 31.888 39.5265C32.6489 42.622 31.8516 45.4901 30.0201 48.1055C29.0254 49.5362 27.9263 50.9025 26.7306 52.195C25.013 54.0396 23.1633 55.7833 21.3545 57.5563C20.9859 57.9118 20.5361 58.1866 20.0379 58.3607C20.8853 54.2797 19.8966 50.4514 18.9991 46.4756C18.5864 46.6467 18.1862 46.8422 17.8008 47.0611C15.9511 48.2951 14.1834 47.975 12.3337 46.9894C9.68662 45.5701 7.59996 43.6202 5.65455 41.4807C4.28775 39.9856 3.58159 38.6252 5.05318 36.8985C5.20908 36.612 5.32247 36.3075 5.39032 35.993ZM50.4947 1.07049C48.8454 2.62036 46.9046 3.17627 44.8042 3.37422C41.0592 3.74484 37.5146 4.83986 34.0339 6.0907C27.2241 8.46155 21.2539 12.5231 16.7803 17.8284C15.5775 19.2561 14.4431 20.7386 13.3633 22.2464C12.5797 23.3414 11.4908 23.7541 10.1741 23.851C7.89724 24.0038 5.70962 24.7322 3.85039 25.9568C0.0871367 28.4163 -2.80591 31.6087 -5.19325 35.2223C-5.27526 35.3444 -5.22514 35.5381 -5.24336 35.774C-1.23408 35.0243 2.73417 34.6495 6.93025 35.5255C6.3653 36.5447 5.89606 37.4544 5.35845 38.3262C4.99397 38.92 5.13974 39.3412 5.55889 39.8592C7.63642 42.4115 9.95543 44.6984 12.9624 46.3746C15.0217 47.5201 14.9488 47.5959 17.1129 46.4714C17.8692 46.0798 18.4797 45.2964 19.6278 45.5996C20.8057 49.0553 21.3854 52.6614 21.3454 56.2844C23.4002 54.2376 25.2089 52.574 26.849 50.7757C29.6783 47.6717 31.8333 44.2898 31.1681 39.9856C30.9267 38.4273 31.3914 37.2144 32.8903 36.3973C32.9926 36.3338 33.0873 36.2604 33.1728 36.1783C37.4417 32.809 41.2505 29.0649 44.0343 24.5206C46.818 19.9763 48.9001 15.1372 49.2235 9.81376C49.3921 7.05095 49.301 4.25444 50.7179 1.68958C50.7498 1.60956 50.645 1.4748 50.4947 1.07049Z" fill="#1F89AE"/>
<path d="M10.89 50.3293C11.7237 50.3714 12.1611 50.8179 12.0609 51.5465C12.008 52.443 11.8004 53.3259 11.4459 54.1619C10.6765 55.6617 9.57868 56.9976 8.22196 58.085C6.86524 59.1724 5.27912 59.9877 3.56397 60.4793C4.32937 58.8494 6.0743 57.847 5.70982 55.8465C1.56842 58.5967 -2.57296 61.1531 -7.88525 62.0123C-7.04695 57.5185 -5.9535 53.3869 -3.37025 49.2975L-7.64377 50.2577C-6.20408 46.3199 -2.08093 42.6769 1.83723 43.5192C2.90302 43.7459 3.93337 44.0968 4.90346 44.5636C7.05844 45.5997 8.73505 47.1875 10.2568 48.9016C10.5596 49.3608 10.7955 49.8551 10.9583 50.3714C9.751 49.3438 8.53911 48.3204 7.31354 47.2843C5.87578 46.0533 4.19202 45.0934 2.35662 44.4584C-0.413429 43.4771 -4.70972 46.0672 -5.6027 48.9605L-0.71412 47.2212C-2.33984 49.1793 -3.65175 51.3439 -4.60946 53.648C-5.47966 55.9055 -6.49569 58.1629 -6.47747 60.8077C-3.77576 60.2729 -1.55695 59.1863 0.566141 57.9734C2.68924 56.7604 4.66651 55.3874 6.80327 54.0229C7.49579 55.4253 6.56636 56.5835 6.63014 57.788C9.65988 56.4782 11.4914 53.2311 10.89 50.3293Z" fill="#1F89AE"/>
<path d="M33.1088 16.0639C33.0851 15.4301 33.2233 14.8001 33.5122 14.225C33.8012 13.6498 34.2326 13.1458 34.7717 12.7536C35.0499 12.5341 35.3697 12.3641 35.7149 12.2524C37.7149 11.6207 39.0316 13.0442 40.4075 13.8528C41.5055 14.5014 41.3187 15.9081 40.7856 16.9947C40.0612 18.494 38.8448 19.4879 36.9586 19.4753C34.585 19.4585 32.881 17.9296 33.1088 16.0639ZM34.0519 15.9797C34.0389 16.3341 34.104 16.6872 34.2432 17.0177C34.3824 17.3481 34.5928 17.6489 34.8617 17.9018C35.1306 18.1547 35.4524 18.3544 35.8074 18.4888C36.1623 18.6232 36.5432 18.6894 36.9267 18.6835C38.4894 18.713 40.0567 17.2263 40.0886 15.6807C40.1159 14.2487 38.6489 13.0274 36.8994 13.0189C35.3003 13.0105 34.0929 14.3035 34.0519 15.9881V15.9797Z" fill="#1F89AE"/>
</svg>
