<svg width="28.8" height="24" viewBox="0 0 30 24" fill="none" xmlns="http://www.w3.org/2000/svg">
<g clip-path="url(#clip0_30_2961)">
<path fill-rule="evenodd" clip-rule="evenodd" d="M29.4 2.84117C28.3418 3.32308 27.2024 3.64897 26.0073 3.79459C27.2278 3.04572 28.1643 1.85829 28.6055 0.443774C27.4627 1.13717 26.2 1.6416 24.851 1.91202C23.7759 0.734993 22.2393 0 20.5387 0C17.2778 0 14.6323 2.71289 14.6323 6.0585C14.6323 6.53348 14.683 6.99459 14.7844 7.43836C9.87372 7.18527 5.52084 4.77573 2.60483 1.10596C2.09601 2.0039 1.80525 3.04572 1.80525 4.15515C1.80525 6.25612 2.84826 8.11095 4.43389 9.19784C3.46696 9.16837 2.55412 8.89275 1.75623 8.44204V8.51657C1.75623 11.4531 3.79321 13.9025 6.49791 14.4572C6.00261 14.5993 5.48027 14.6704 4.94102 14.6704C4.56067 14.6704 4.18877 14.634 3.82871 14.5629C4.58096 16.969 6.76162 18.7216 9.34799 18.7684C7.32622 20.3944 4.77704 21.3634 2.0098 21.3634C1.53309 21.3634 1.06146 21.3356 0.599976 21.2802C3.21508 22.9963 6.32211 24 9.65734 24C20.5269 24 26.4688 14.7692 26.4688 6.7623C26.4688 6.49881 26.4637 6.23532 26.4535 5.97703C27.6081 5.12243 28.6105 4.05634 29.4 2.84117Z" fill="#00AAEC"/>
</g>
<defs>
<clipPath id="clip0_30_2961">
<rect width="28.8" height="24" fill="white" transform="translate(0.599976)"/>
</clipPath>
</defs>
</svg>
